<?xml version="1.0" encoding="UTF-8"?>
<!DOCTYPE svg PUBLIC "-//W3C//DTD SVG 1.1//EN" "http://www.w3.org/Graphics/SVG/1.1/DTD/svg11.dtd">
<!-- Creator: CorelDRAW 2021.5 -->
<svg xmlns="http://www.w3.org/2000/svg" xml:space="preserve" width="223px" height="107px" version="1.1" style="shape-rendering:geometricPrecision; text-rendering:geometricPrecision; image-rendering:optimizeQuality; fill-rule:evenodd; clip-rule:evenodd"
viewBox="0 0 14.61 7.05"
 xmlns:xlink="http://www.w3.org/1999/xlink"
 xmlns:xodm="http://www.corel.com/coreldraw/odm/2003">
 <defs>
  <style type="text/css">
   <![CDATA[
    .fil2 {fill:none;fill-rule:nonzero}
    .fil1 {fill:white;fill-rule:nonzero}
    .fil0 {fill:white;fill-rule:nonzero}
   ]]>
  </style>
    <clipPath id="id0" style="clip-rule:nonzero">
     <path d="M3.02 2.57l0 -0.54 -2.39 0 0 -2.03 -0.63 0 0 2.57 3.02 0zm2.31 -2.03l0.03 0 0.65 1.01 -1.33 0 0.65 -1.01zm-1.3 2.03l0.31 -0.48 2.01 0 0.3 0.48 0.71 0 -1.63 -2.57 -0.77 0 -1.64 2.57 0.71 0zm6.07 0c0.26,0 0.47,-0.08 0.62,-0.23 0.17,-0.17 0.22,-0.37 0.22,-0.55 0,-0.19 -0.05,-0.39 -0.22,-0.55 -0.15,-0.15 -0.37,-0.23 -0.62,-0.23l-1.69 0c-0.13,0 -0.21,-0.08 -0.21,-0.24 0,-0.15 0.08,-0.23 0.21,-0.23l2.42 0 0 -0.54 -2.43 0c-0.25,0 -0.45,0.08 -0.61,0.23 -0.17,0.16 -0.22,0.37 -0.22,0.55 0,0.18 0.05,0.39 0.22,0.55 0.16,0.14 0.36,0.22 0.61,0.22l1.7 0c0.13,0 0.21,0.09 0.21,0.24 0,0.15 -0.08,0.24 -0.21,0.24l-2.42 0 0 0.54 2.42 0zm4.51 0l0 -0.54 -2.57 0 0 -0.48 1.96 0 0 -0.54 -1.96 0 0 -0.47 2.57 0 0 -0.54 -3.19 0 0 2.57 3.19 0z"/>
    </clipPath>
      <clipPath id="id1">
      </clipPath>
      <clipPath id="id2">
       <path d="M3.02 2.57l0 -0.54 -2.39 0 0 -2.03 -0.63 0 0 2.57 3.02 0zm2.31 -2.03l0.03 0 0.65 1.01 -1.33 0 0.65 -1.01zm-1.3 2.03l0.31 -0.48 2.01 0 0.3 0.48 0.71 0 -1.63 -2.57 -0.77 0 -1.64 2.57 0.71 0zm6.07 0c0.26,0 0.47,-0.08 0.62,-0.23 0.17,-0.17 0.22,-0.37 0.22,-0.55 0,-0.19 -0.05,-0.39 -0.22,-0.55 -0.15,-0.15 -0.37,-0.23 -0.62,-0.23l-1.69 0c-0.13,0 -0.21,-0.08 -0.21,-0.24 0,-0.15 0.08,-0.23 0.21,-0.23l2.42 0 0 -0.54 -2.43 0c-0.25,0 -0.45,0.08 -0.61,0.23 -0.17,0.16 -0.22,0.37 -0.22,0.55 0,0.18 0.05,0.39 0.22,0.55 0.16,0.14 0.36,0.22 0.61,0.22l1.7 0c0.13,0 0.21,0.09 0.21,0.24 0,0.15 -0.08,0.24 -0.21,0.24l-2.42 0 0 0.54 2.42 0zm4.51 0l0 -0.54 -2.57 0 0 -0.48 1.96 0 0 -0.54 -1.96 0 0 -0.47 2.57 0 0 -0.54 -3.19 0 0 2.57 3.19 0z"/>
      </clipPath>
      <clipPath id="id3">
      </clipPath>
      <clipPath id="id4">
       <path d="M3.02 2.57l0 -0.54 -2.39 0 0 -2.03 -0.63 0 0 2.57 3.02 0zm2.31 -2.03l0.03 0 0.65 1.01 -1.33 0 0.65 -1.01zm-1.3 2.03l0.31 -0.48 2.01 0 0.3 0.48 0.71 0 -1.63 -2.57 -0.77 0 -1.64 2.57 0.71 0zm6.07 0c0.26,0 0.47,-0.08 0.62,-0.23 0.17,-0.17 0.22,-0.37 0.22,-0.55 0,-0.19 -0.05,-0.39 -0.22,-0.55 -0.15,-0.15 -0.37,-0.23 -0.62,-0.23l-1.69 0c-0.13,0 -0.21,-0.08 -0.21,-0.24 0,-0.15 0.08,-0.23 0.21,-0.23l2.42 0 0 -0.54 -2.43 0c-0.25,0 -0.45,0.08 -0.61,0.23 -0.17,0.16 -0.22,0.37 -0.22,0.55 0,0.18 0.05,0.39 0.22,0.55 0.16,0.14 0.36,0.22 0.61,0.22l1.7 0c0.13,0 0.21,0.09 0.21,0.24 0,0.15 -0.08,0.24 -0.21,0.24l-2.42 0 0 0.54 2.42 0zm4.51 0l0 -0.54 -2.57 0 0 -0.48 1.96 0 0 -0.54 -1.96 0 0 -0.47 2.57 0 0 -0.54 -3.19 0 0 2.57 3.19 0z"/>
      </clipPath>
 </defs>
 <g id="Layer_x0020_1">
  <metadata id="CorelCorpID_0Corel-Layer"/>
  <g id="_105553778938112">
   <path class="fil0" d="M0.18 3.76l0 0.65 -0.09 0 -0.09 0 0 -1.41 0.37 0c0.2,0 0.34,0.03 0.41,0.08 0.08,0.05 0.12,0.13 0.12,0.26 0,0.12 -0.04,0.22 -0.11,0.28 -0.07,0.06 -0.18,0.11 -0.33,0.14 -0.02,0 -0.04,0.01 -0.07,0.01 -0.03,0 -0.05,0 -0.05,0 -0.04,0 -0.06,0 -0.09,0 -0.02,0 -0.05,0 -0.07,-0.01zm0 -0.68l0 0.6c0.01,0.01 0.02,0.01 0.06,0.01 0.01,0 0.02,0 0.04,0l0.04 0c0.01,0 0.02,0 0.03,0 0.02,0 0.03,-0.01 0.03,-0.01 0.11,0 0.19,-0.04 0.24,-0.1 0.06,-0.06 0.09,-0.14 0.09,-0.23 0,-0.07 -0.02,-0.13 -0.05,-0.18 -0.04,-0.05 -0.09,-0.08 -0.14,-0.08 -0.05,-0.01 -0.09,-0.01 -0.11,-0.01 -0.03,0 -0.05,0 -0.07,0 -0.03,0 -0.06,0 -0.08,0 -0.03,0 -0.06,0 -0.08,0zm1.68 0.13l0 0.51c0.01,0 0.03,0 0.04,0 0.02,0 0.04,0 0.06,0 0.02,0 0.05,0 0.07,0 0.03,0 0.05,-0.01 0.07,-0.01 0.07,-0.02 0.13,-0.05 0.17,-0.09 0.05,-0.05 0.07,-0.11 0.07,-0.18 0,-0.13 -0.07,-0.21 -0.2,-0.23 -0.03,0 -0.06,-0.01 -0.1,-0.01 -0.02,0 -0.05,0 -0.09,0.01 -0.04,0 -0.07,0 -0.09,0zm-0.16 1.2l0 -1.27 0.39 0c0.14,0 0.25,0.02 0.32,0.07 0.06,0.05 0.1,0.12 0.1,0.21 0,0.1 -0.04,0.18 -0.12,0.25 -0.07,0.05 -0.16,0.08 -0.27,0.1l0.39 0.49 0.09 0.1 0.03 0.05 -0.11 0 -0.1 0 -0.12 -0.16 -0.22 -0.29 -0.15 -0.17 -0.07 0 0 0.62 -0.08 0 -0.08 0zm2.75 -0.65c0,-0.08 -0.01,-0.16 -0.02,-0.22 -0.02,-0.07 -0.05,-0.13 -0.1,-0.19 -0.04,-0.06 -0.1,-0.1 -0.17,-0.13 -0.06,-0.03 -0.13,-0.05 -0.21,-0.05 -0.16,0 -0.29,0.06 -0.39,0.17 -0.09,0.12 -0.14,0.27 -0.14,0.46 0,0.18 0.05,0.32 0.15,0.43 0.1,0.09 0.22,0.14 0.36,0.14 0.18,0 0.31,-0.07 0.41,-0.23 0.07,-0.11 0.11,-0.24 0.11,-0.38zm-0.52 0.67c-0.21,0 -0.38,-0.06 -0.5,-0.18 -0.13,-0.12 -0.19,-0.28 -0.19,-0.48 0,-0.19 0.07,-0.36 0.2,-0.48 0.13,-0.12 0.29,-0.18 0.49,-0.18 0.19,0 0.35,0.05 0.48,0.15 0.15,0.12 0.22,0.28 0.22,0.49 0,0.2 -0.06,0.37 -0.19,0.49 -0.13,0.13 -0.3,0.19 -0.51,0.19zm1.59 -0.6l0 0.58 -0.08 0 -0.08 0 0 -1.27 0.33 0c0.18,0 0.3,0.02 0.37,0.07 0.07,0.04 0.11,0.12 0.11,0.23 0,0.11 -0.04,0.2 -0.1,0.26 -0.06,0.05 -0.16,0.1 -0.3,0.12 -0.02,0.01 -0.04,0.01 -0.06,0.01 -0.03,0 -0.05,0 -0.05,0 -0.03,0 -0.06,0 -0.08,0 -0.02,0 -0.04,0 -0.06,0zm0 -0.62l0 0.54c0,0.01 0.02,0.01 0.05,0.01 0.01,0 0.02,0 0.03,0l0.04 0c0.01,0 0.02,0 0.03,0 0.02,0 0.03,-0.01 0.03,-0.01 0.09,0 0.17,-0.04 0.22,-0.09 0.05,-0.05 0.08,-0.12 0.08,-0.21 0,-0.06 -0.02,-0.12 -0.05,-0.16 -0.04,-0.04 -0.08,-0.07 -0.12,-0.07 -0.05,-0.01 -0.08,-0.01 -0.11,-0.01 -0.02,0 -0.04,0 -0.06,0 -0.02,0 -0.05,0 -0.07,0 -0.03,0 -0.05,0 -0.07,0zm1.55 0.02l0 0.46 0.29 0c0.02,0 0.05,0 0.09,0 0.04,0 0.06,-0.01 0.07,-0.01l0 0.05 0 0.05c-0.02,0 -0.05,0 -0.09,0 -0.04,0 -0.07,-0.01 -0.07,-0.01l-0.29 0 0 0.55c0.04,0 0.1,0 0.19,-0.01 0.09,0 0.14,0 0.14,0 0.04,0 0.06,0 0.08,0 0.02,0 0.05,-0.01 0.1,-0.02l-0.01 0.06 0.01 0.06 -0.68 0 0 -1.27 0.66 0 0 0.05 0 0.06c-0.03,-0.01 -0.06,-0.01 -0.09,-0.02 -0.02,0 -0.05,0 -0.07,0l-0.19 0 -0.14 0zm1.43 -0.02l0 0.51c0.01,0 0.02,0 0.04,0 0.01,0 0.03,0 0.05,0 0.03,0 0.05,0 0.08,0 0.02,0 0.04,-0.01 0.07,-0.01 0.06,-0.02 0.12,-0.05 0.17,-0.09 0.04,-0.05 0.06,-0.11 0.06,-0.18 0,-0.13 -0.06,-0.21 -0.2,-0.23 -0.03,0 -0.06,-0.01 -0.1,-0.01 -0.02,0 -0.05,0 -0.09,0.01 -0.04,0 -0.07,0 -0.08,0zm-0.17 1.2l0 -1.27 0.4 0c0.14,0 0.24,0.02 0.31,0.07 0.07,0.05 0.1,0.12 0.1,0.21 0,0.1 -0.04,0.18 -0.12,0.25 -0.07,0.05 -0.15,0.08 -0.26,0.1l0.38 0.49 0.09 0.1 0.04 0.05 -0.11 0 -0.11 0 -0.12 -0.16 -0.22 -0.29 -0.14 -0.17 -0.07 0 0 0.62 -0.09 0 -0.08 0zm2.07 -1.18l0 1.18 -0.08 0 -0.08 0 0 -1.18c-0.1,0 -0.16,0 -0.21,0 -0.04,0 -0.1,0.01 -0.2,0.02l0.01 -0.06 -0.01 -0.05 0.96 0 0 0.05 0 0.06c-0.04,0 -0.1,-0.01 -0.17,-0.01 -0.07,-0.01 -0.14,-0.01 -0.22,-0.01zm1.1 1.18l0 -1.27 0.09 0 0.08 0 0 1.27 -0.08 0 -0.09 0zm1.17 -1.18l0 0.46 0.29 0c0.02,0 0.05,0 0.09,0 0.04,0 0.06,-0.01 0.07,-0.01l0 0.05 0 0.05c-0.02,0 -0.05,0 -0.09,0 -0.04,0 -0.06,-0.01 -0.07,-0.01l-0.29 0 0 0.55c0.04,0 0.1,0 0.19,-0.01 0.09,0 0.14,0 0.15,0 0.03,0 0.06,0 0.07,0 0.02,0 0.05,-0.01 0.1,-0.02l-0.01 0.06 0.01 0.06 -0.67 0 0 -1.27 0.66 0 -0.01 0.05 0.01 0.06c-0.04,-0.01 -0.07,-0.01 -0.1,-0.02 -0.02,0 -0.04,0 -0.07,0l-0.19 0 -0.14 0zm1.22 0.93l0.01 0c0.04,0.06 0.08,0.11 0.13,0.14 0.05,0.04 0.11,0.05 0.17,0.05 0.08,0 0.14,-0.02 0.19,-0.08 0.05,-0.05 0.07,-0.11 0.07,-0.19 0,-0.09 -0.05,-0.17 -0.15,-0.22 -0.09,-0.04 -0.19,-0.08 -0.28,-0.12 -0.1,-0.06 -0.15,-0.15 -0.15,-0.27 0,-0.12 0.04,-0.21 0.12,-0.27 0.08,-0.06 0.18,-0.09 0.29,-0.09 0.05,0 0.1,0.01 0.15,0.02 0.05,0.02 0.09,0.04 0.12,0.07 -0.01,0.02 -0.02,0.04 -0.02,0.06 0,0 -0.01,0.03 -0.03,0.09l-0.02 0c-0.02,-0.05 -0.05,-0.09 -0.09,-0.12 -0.04,-0.02 -0.08,-0.04 -0.14,-0.04 -0.07,0 -0.12,0.02 -0.17,0.06 -0.04,0.04 -0.06,0.09 -0.06,0.16 0,0.09 0.05,0.17 0.15,0.22 0.09,0.04 0.19,0.08 0.28,0.12 0.1,0.06 0.15,0.15 0.15,0.26 0,0.13 -0.04,0.23 -0.13,0.31 -0.09,0.08 -0.19,0.11 -0.33,0.11 -0.05,0 -0.1,-0.01 -0.16,-0.03 -0.07,-0.02 -0.11,-0.04 -0.14,-0.07 0.01,-0.03 0.02,-0.06 0.02,-0.08 0.01,-0.02 0.01,-0.05 0.02,-0.09z"/>
   <path class="fil1" d="M0.38 5.72c-0.01,0.03 -0.02,0.06 -0.04,0.09 -0.01,0.01 -0.03,0.01 -0.07,-0.01 -0.04,-0.01 -0.06,-0.03 -0.06,-0.04 0,-0.01 0,-0.01 0.01,-0.02 0,0 0.01,-0.02 0.02,-0.06 0.01,-0.03 0.03,-0.04 0.04,-0.04 0,0 0,0 0.01,0 0.02,0.01 0.04,0.02 0.06,0.03 0.02,0.01 0.03,0.03 0.03,0.04 0,0 0,0.01 0,0.01zm0.24 0.6c-0.04,-0.01 -0.07,-0.01 -0.09,-0.01 0,0.03 0,0.07 0,0.1 -0.01,0.09 -0.04,0.17 -0.1,0.24 -0.04,0.06 -0.1,0.1 -0.17,0.13 -0.06,0 -0.13,0 -0.22,-0.01 -0.03,-0.01 -0.04,-0.02 -0.04,-0.03 0,0 0.04,-0.02 0.11,-0.04 0.09,-0.03 0.16,-0.06 0.2,-0.08 0.09,-0.05 0.14,-0.11 0.16,-0.17 0,-0.08 -0.01,-0.14 -0.03,-0.19 -0.02,-0.03 -0.04,-0.06 -0.05,-0.1 0,-0.09 0.02,-0.14 0.04,-0.14 0,0 0.01,0.02 0.03,0.05 0.02,0.03 0.04,0.06 0.05,0.07 0.03,0.01 0.06,0.02 0.11,0.03l0 0.15zm0.38 0c-0.06,0 -0.13,-0.03 -0.21,-0.1 -0.06,0.07 -0.11,0.1 -0.17,0.1l0 -0.15c0.04,0 0.08,-0.01 0.11,-0.02 0.03,-0.02 0.05,-0.03 0.08,-0.04 0,0 0.03,0.01 0.07,0.03 0.05,0.02 0.09,0.03 0.12,0.03l0 0.15zm-0.05 0.35c0,0.01 -0.01,0.03 -0.02,0.05 -0.01,0.04 -0.02,0.06 -0.04,0.06 -0.01,0 -0.03,-0.01 -0.05,-0.03 -0.02,-0.02 -0.04,-0.04 -0.04,-0.05 0.02,-0.07 0.04,-0.1 0.05,-0.11 0.01,0 0.03,0.01 0.05,0.03 0.03,0.02 0.05,0.04 0.05,0.05zm-0.17 0.06c0,0.01 0,0.03 -0.01,0.06 -0.01,0.03 -0.02,0.05 -0.03,0.05 -0.01,0 -0.03,-0.01 -0.06,-0.03 -0.03,-0.02 -0.05,-0.03 -0.05,-0.04 -0.01,-0.02 0.01,-0.05 0.05,-0.11 0.03,0.01 0.06,0.04 0.1,0.07zm0.41 -1.23c0,0.02 -0.01,0.04 -0.02,0.05 -0.01,0.04 -0.02,0.06 -0.04,0.06 -0.01,0 -0.03,-0.02 -0.05,-0.03 -0.02,-0.02 -0.04,-0.04 -0.04,-0.05 0.02,-0.07 0.04,-0.1 0.06,-0.11 0,0 0.02,0.01 0.04,0.03 0.03,0.02 0.05,0.04 0.05,0.05zm-0.17 0.06c0,0.01 0,0.03 -0.01,0.06 -0.01,0.03 -0.02,0.04 -0.03,0.04 -0.01,0 -0.03,-0.01 -0.06,-0.02 -0.03,-0.02 -0.05,-0.03 -0.05,-0.04 -0.01,-0.02 0.01,-0.06 0.05,-0.11 0.03,0.01 0.06,0.03 0.1,0.07zm0.14 0.55c0,0.06 -0.01,0.11 -0.04,0.16 -0.01,0.03 -0.05,0.05 -0.12,0.05l0 -0.15c0.06,0 0.09,-0.01 0.09,-0.04 -0.01,-0.02 -0.02,-0.04 -0.04,-0.07 -0.01,-0.02 -0.02,-0.04 -0.03,-0.06 0.01,-0.03 0.02,-0.06 0.04,-0.1 0.02,-0.01 0.04,0 0.05,0.04 0.03,0.04 0.04,0.1 0.05,0.17zm0.66 0.21c-0.03,-0.01 -0.07,-0.01 -0.09,-0.01 0,0.03 0,0.07 0,0.1 -0.01,0.09 -0.04,0.17 -0.09,0.24 -0.05,0.06 -0.1,0.1 -0.18,0.13 -0.05,0 -0.13,0 -0.22,-0.01 -0.03,-0.01 -0.04,-0.02 -0.04,-0.03 0,0 0.04,-0.02 0.11,-0.04 0.09,-0.03 0.16,-0.06 0.21,-0.08 0.08,-0.05 0.13,-0.11 0.15,-0.17 0.01,-0.08 0,-0.14 -0.03,-0.19 -0.02,-0.03 -0.04,-0.06 -0.05,-0.1 0.01,-0.09 0.02,-0.14 0.04,-0.14 0,0 0.02,0.02 0.03,0.05 0.03,0.03 0.04,0.06 0.06,0.07 0.02,0.01 0.05,0.02 0.1,0.03l0 0.15zm0.38 0c-0.06,0 -0.13,-0.03 -0.21,-0.1 -0.05,0.07 -0.11,0.1 -0.17,0.1l0 -0.15c0.04,0 0.08,-0.01 0.11,-0.02 0.03,-0.02 0.06,-0.03 0.08,-0.04 0.01,0 0.03,0.01 0.08,0.03 0.04,0.02 0.08,0.03 0.11,0.03l0 0.15zm-0.05 0.35c0,0.01 0,0.03 -0.02,0.05 -0.01,0.04 -0.02,0.06 -0.04,0.06 -0.01,0 -0.03,-0.01 -0.05,-0.03 -0.02,-0.02 -0.04,-0.04 -0.04,-0.05 0.02,-0.07 0.04,-0.1 0.06,-0.11 0,0 0.02,0.01 0.05,0.03 0.02,0.02 0.04,0.04 0.04,0.05zm-0.17 0.06c0,0.01 0,0.03 -0.01,0.06 -0.01,0.03 -0.02,0.05 -0.03,0.05 -0.01,0 -0.03,-0.01 -0.06,-0.03 -0.03,-0.02 -0.05,-0.03 -0.05,-0.04 -0.01,-0.02 0.01,-0.05 0.05,-0.11 0.03,0.01 0.06,0.04 0.1,0.07zm0.38 -0.62c0,0.06 -0.01,0.11 -0.03,0.16 -0.02,0.03 -0.06,0.05 -0.13,0.05l0 -0.15c0.06,0 0.09,-0.01 0.09,-0.04 -0.01,-0.02 -0.02,-0.04 -0.04,-0.07 -0.01,-0.02 -0.02,-0.04 -0.02,-0.06 0,-0.03 0.02,-0.06 0.04,-0.1 0.01,-0.01 0.03,0 0.05,0.04 0.02,0.04 0.03,0.1 0.04,0.17zm0.04 0.4c-0.01,0.03 -0.03,0.06 -0.04,0.1 -0.01,0 -0.03,0 -0.07,-0.02 -0.04,-0.01 -0.06,-0.03 -0.06,-0.04 0,-0.01 0,-0.01 0,-0.02 0.01,0 0.02,-0.02 0.03,-0.06 0.01,-0.03 0.02,-0.04 0.04,-0.04 0,0 0,0 0.01,0 0.04,0.02 0.06,0.04 0.07,0.04 0.01,0.01 0.02,0.02 0.02,0.04zm0.6 -0.37c0,0.08 -0.02,0.18 -0.06,0.3 -0.06,0.09 -0.11,0.16 -0.15,0.2 -0.06,0.06 -0.13,0.09 -0.2,0.09 -0.03,0 -0.12,-0.02 -0.27,-0.04 -0.01,-0.01 -0.02,-0.01 -0.02,-0.02 0,-0.01 0.01,-0.02 0.03,-0.02 0.07,0 0.12,0 0.15,-0.01 0.1,-0.03 0.19,-0.07 0.27,-0.14 0.08,-0.06 0.14,-0.14 0.17,-0.23 0.01,-0.01 0.01,-0.04 -0.01,-0.08 -0.02,0.08 -0.06,0.11 -0.09,0.11 -0.04,0 -0.08,-0.01 -0.1,-0.05 -0.03,-0.03 -0.03,-0.05 -0.03,-0.08 0,-0.06 0.02,-0.11 0.04,-0.15 0.03,-0.06 0.06,-0.09 0.1,-0.11 0.04,0 0.07,0.03 0.11,0.08 0.04,0.05 0.06,0.1 0.06,0.15zm-0.15 -0.02c0,-0.02 -0.02,-0.03 -0.05,-0.03 -0.01,0.02 -0.02,0.03 -0.02,0.03 0,0.02 0.02,0.02 0.05,0.03 0.01,0 0.02,-0.01 0.02,-0.03zm0.72 0.2c-0.04,-0.01 -0.07,-0.01 -0.09,-0.01 0,0.03 -0.01,0.07 -0.01,0.1 -0.01,0.09 -0.04,0.17 -0.09,0.24 -0.04,0.06 -0.1,0.1 -0.17,0.13 -0.06,0 -0.13,0 -0.23,-0.01 -0.02,-0.01 -0.03,-0.02 -0.03,-0.03 0,0 0.03,-0.02 0.1,-0.04 0.09,-0.03 0.16,-0.06 0.21,-0.08 0.08,-0.05 0.14,-0.11 0.16,-0.17 0,-0.08 -0.01,-0.14 -0.03,-0.19 -0.02,-0.03 -0.04,-0.06 -0.06,-0.1 0.01,-0.09 0.02,-0.14 0.04,-0.14 0.01,0 0.02,0.02 0.04,0.05 0.02,0.03 0.04,0.06 0.05,0.07 0.02,0.01 0.06,0.02 0.11,0.03l0 0.15zm0.15 -0.21c0,0.06 -0.01,0.11 -0.03,0.16 -0.01,0.03 -0.06,0.05 -0.12,0.05l0 -0.15c0.05,0 0.08,-0.01 0.09,-0.04 -0.01,-0.02 -0.02,-0.04 -0.04,-0.07 -0.02,-0.02 -0.03,-0.04 -0.03,-0.06 0.01,-0.03 0.02,-0.06 0.04,-0.1 0.02,-0.01 0.03,0 0.05,0.04 0.02,0.04 0.04,0.1 0.04,0.17zm0.04 0.4c-0.01,0.03 -0.02,0.06 -0.04,0.1 -0.01,0 -0.03,0 -0.07,-0.02 -0.04,-0.01 -0.06,-0.03 -0.06,-0.04 0,-0.01 0.01,-0.01 0.01,-0.02 0,0 0.01,-0.02 0.03,-0.06 0.01,-0.03 0.02,-0.04 0.03,-0.04 0.01,0 0.01,0 0.01,0 0.04,0.02 0.07,0.04 0.07,0.04 0.02,0.01 0.03,0.02 0.02,0.04zm1.44 -0.57c0.01,0 0.02,0 0.02,0.01 0,0.01 -0.02,0.03 -0.05,0.05 -0.03,0.03 -0.05,0.04 -0.06,0.04 -0.02,0.01 -0.06,0.01 -0.13,0.01 -0.28,0 -0.46,0.01 -0.52,0.01 0,0.01 -0.01,0 -0.01,0 0,-0.02 0.02,-0.05 0.06,-0.09 0.05,0 0.14,0 0.26,-0.01 0,0 0.09,0 0.25,0 0.09,0 0.15,-0.01 0.18,-0.02zm1.54 -0.17c0,0.06 -0.01,0.1 -0.03,0.12 0,0.01 -0.01,0.02 -0.02,0.02 0,0 -0.01,-0.01 -0.01,-0.02 -0.02,-0.02 -0.04,-0.03 -0.08,-0.03 -0.02,0 -0.07,0.03 -0.14,0.1 -0.07,0.07 -0.1,0.13 -0.1,0.17 0,0.01 0,0.02 0.01,0.03 0.04,0.01 0.11,0.02 0.2,0.03 0.02,0.01 0.05,0.02 0.07,0.03 0.03,0.01 0.04,0.04 0.04,0.08 0,0.02 -0.01,0.07 -0.05,0.15 -0.04,0.07 -0.13,0.13 -0.25,0.19 -0.11,0.06 -0.21,0.08 -0.29,0.08 -0.09,0 -0.16,-0.04 -0.22,-0.11 -0.05,-0.08 -0.08,-0.16 -0.08,-0.25 0,-0.03 0.01,-0.09 0.04,-0.18 0.03,-0.09 0.05,-0.14 0.07,-0.15 0.01,0 0.01,0 0.01,0.01 0,0 0,0.01 0,0.02 0,0.01 -0.01,0.01 -0.01,0.02 -0.03,0.04 -0.04,0.11 -0.04,0.2 0,0.08 0.03,0.15 0.09,0.21 0.06,0.05 0.12,0.07 0.19,0.07 0.08,0 0.18,-0.03 0.3,-0.09 0.12,-0.06 0.17,-0.11 0.15,-0.13 0,-0.01 -0.02,-0.02 -0.06,-0.02 -0.07,-0.01 -0.1,-0.02 -0.11,-0.02 -0.04,-0.01 -0.06,-0.01 -0.07,-0.02 -0.03,-0.01 -0.05,-0.03 -0.06,-0.05 0,-0.01 0,-0.02 0,-0.04 0,-0.1 0.04,-0.21 0.13,-0.33 0.08,-0.11 0.16,-0.17 0.24,-0.19 0.05,0.03 0.08,0.06 0.08,0.1zm-0.36 1.11c0,0.01 -0.01,0.03 -0.02,0.05 -0.01,0.04 -0.02,0.06 -0.04,0.06 -0.01,0 -0.03,-0.01 -0.05,-0.03 -0.03,-0.02 -0.04,-0.04 -0.05,-0.05 0.03,-0.07 0.05,-0.1 0.06,-0.11 0.01,0 0.02,0.01 0.05,0.03 0.03,0.02 0.05,0.04 0.05,0.05zm-0.17 0.06c0,0.01 -0.01,0.03 -0.01,0.06 -0.02,0.03 -0.03,0.05 -0.04,0.05 0,0 -0.03,-0.01 -0.06,-0.03 -0.03,-0.02 -0.04,-0.03 -0.04,-0.04 -0.01,-0.02 0.01,-0.05 0.05,-0.11 0.03,0.01 0.06,0.04 0.1,0.07zm0.78 -0.8c0,0.03 0,0.07 -0.02,0.1 0,0.01 -0.01,0.02 -0.01,0.02 -0.02,0 -0.03,-0.05 -0.04,-0.14 -0.02,-0.12 -0.03,-0.23 -0.04,-0.35 -0.03,-0.29 -0.05,-0.42 -0.05,-0.39 0,-0.06 0.01,-0.1 0.03,-0.13 0,-0.01 0.01,-0.02 0.01,-0.02 0.01,0 0.02,0.03 0.03,0.1 0,0 0.01,0.12 0.04,0.36 0.02,0.17 0.04,0.32 0.05,0.45zm0.12 0.28c0.01,-0.01 0.02,0 0.02,0.01 0,0.02 -0.01,0.04 -0.03,0.06 -0.02,0.02 -0.05,0.04 -0.1,0.07 -0.05,0.02 -0.09,0.04 -0.11,0.06 -0.02,0 -0.03,0.01 -0.03,0 -0.01,0 -0.01,0 -0.01,-0.01 0,-0.01 0.02,-0.04 0.07,-0.07 -0.03,-0.01 -0.05,-0.01 -0.05,-0.01 -0.01,-0.01 -0.03,-0.03 -0.04,-0.06 0.04,-0.1 0.08,-0.15 0.14,-0.15 0.02,0 0.03,0.01 0.04,0.02 0.01,0.01 0.01,0.03 0,0.07 -0.01,0 -0.01,0.01 -0.02,0.01 0,0.01 -0.01,0.01 -0.03,0.01 0,0 -0.01,-0.01 -0.01,-0.01 0,-0.01 0,-0.02 0,-0.02 -0.04,0.01 -0.06,0.02 -0.06,0.04 0.02,0.02 0.04,0.03 0.06,0.03 0.01,0.01 0.03,0.01 0.05,0.02 0.02,-0.01 0.04,-0.02 0.06,-0.04 0.03,-0.02 0.05,-0.03 0.05,-0.03zm1.3 -0.48c0.01,0 0.01,0 0.01,0.01 0,0.01 -0.01,0.03 -0.04,0.05 -0.03,0.03 -0.05,0.04 -0.07,0.04 -0.01,0.01 -0.06,0.01 -0.12,0.01 -0.29,0 -0.46,0.01 -0.52,0.01 -0.01,0.01 -0.01,0 -0.01,0 0,-0.02 0.01,-0.05 0.05,-0.09 0.05,0 0.14,0 0.26,-0.01 0.01,0 0.09,0 0.25,0 0.09,0 0.15,-0.01 0.19,-0.02zm1.74 -0.05c0,0.02 -0.01,0.05 -0.01,0.08 -0.01,0.05 -0.02,0.08 -0.03,0.1 -0.02,0.03 -0.06,0.04 -0.1,0.04 -0.05,0 -0.09,-0.01 -0.11,-0.04 -0.02,0.04 -0.04,0.06 -0.07,0.07 -0.03,0.01 -0.08,0.02 -0.15,0.03 0,0 0,0.01 0,0.03 0,0.02 0.01,0.03 0.01,0.04 0,0.08 -0.03,0.16 -0.07,0.26 -0.07,0.07 -0.11,0.11 -0.14,0.13 -0.07,0.04 -0.14,0.06 -0.23,0.06 -0.07,0 -0.13,-0.03 -0.18,-0.09 -0.06,-0.06 -0.08,-0.13 -0.08,-0.22 0,-0.06 0.02,-0.12 0.04,-0.18 0.02,-0.06 0.04,-0.08 0.06,-0.08l0 0c0.01,0 0.01,0.01 0,0.04 -0.02,0.04 -0.02,0.09 -0.02,0.16 0,0.14 0.07,0.21 0.21,0.21 0.08,0 0.16,-0.02 0.22,-0.06 0.07,-0.05 0.11,-0.1 0.13,-0.16 -0.01,-0.08 -0.02,-0.15 -0.05,-0.19 -0.02,-0.06 -0.04,-0.08 -0.04,-0.08 0,-0.05 0.01,-0.09 0.03,-0.13 0.01,-0.02 0.02,-0.02 0.03,0 0.02,0.01 0.03,0.05 0.06,0.11l0.06 0c0.08,0 0.13,-0.03 0.16,-0.08 0.02,-0.04 0.04,-0.09 0.06,-0.13 0.01,-0.01 0.02,0 0.02,0.01 0.01,0.01 0.01,0.01 0.01,0.02 0,0.01 -0.01,0.03 -0.02,0.09 0.03,0.02 0.06,0.03 0.1,0.03 0.01,0 0.02,0 0.02,-0.01 0,0 0,-0.01 0,-0.01 0,-0.01 -0.01,-0.02 -0.01,-0.03 -0.01,-0.01 -0.01,-0.02 -0.01,-0.04 0,0.01 0.01,-0.02 0.04,-0.1 0.04,0.02 0.06,0.06 0.06,0.12zm1.4 0.05c0.01,0 0.01,0 0.01,0.01 0,0.01 -0.01,0.03 -0.04,0.05 -0.03,0.03 -0.05,0.04 -0.07,0.04 -0.01,0.01 -0.06,0.01 -0.12,0.01 -0.29,0 -0.46,0.01 -0.52,0.01 -0.01,0.01 -0.01,0 -0.01,0 0,-0.02 0.02,-0.05 0.05,-0.09 0.05,0 0.14,0 0.26,-0.01 0.01,0 0.09,0 0.25,0 0.09,0 0.15,-0.01 0.19,-0.02zm0.89 -1.16c0.01,0 0.01,0 0.01,0.01 0,0.02 -0.01,0.04 -0.02,0.07 -0.02,0.02 -0.05,0.04 -0.1,0.06 -0.06,0.03 -0.1,0.05 -0.12,0.07 -0.01,0 -0.02,0 -0.03,0 -0.01,0 -0.01,0 -0.01,-0.01 0,-0.01 0.02,-0.04 0.07,-0.07 -0.03,-0.01 -0.04,-0.01 -0.05,-0.01 -0.01,-0.01 -0.02,-0.03 -0.03,-0.06 0.03,-0.1 0.07,-0.15 0.13,-0.15 0.02,0 0.03,0.01 0.05,0.02 0,0.01 0,0.03 -0.01,0.07 0,0 -0.01,0.01 -0.01,0.01 -0.01,0.01 -0.02,0.01 -0.04,0 0,0 0,0 0,-0.01 0,0 0,-0.01 -0.01,-0.01 -0.03,0.01 -0.05,0.02 -0.05,0.03 0.02,0.02 0.03,0.04 0.05,0.04 0.02,0.01 0.03,0.01 0.05,0.01 0.02,-0.01 0.05,-0.02 0.07,-0.03 0.03,-0.02 0.04,-0.03 0.05,-0.04zm0 1.3c0,0.04 -0.01,0.07 -0.02,0.1 -0.01,0.02 -0.01,0.02 -0.02,0.02 -0.01,0 -0.02,-0.04 -0.04,-0.14 -0.01,-0.11 -0.02,-0.23 -0.03,-0.34 -0.04,-0.29 -0.05,-0.42 -0.05,-0.4 0,-0.05 0.01,-0.1 0.02,-0.13 0.01,-0.01 0.01,-0.02 0.02,-0.02 0.01,0 0.03,0.16 0.07,0.46 0.02,0.19 0.04,0.34 0.05,0.45zm1.42 -0.14c0.01,0 0.01,0 0.01,0.01 0,0.01 -0.01,0.03 -0.04,0.05 -0.03,0.03 -0.05,0.04 -0.06,0.04 -0.02,0.01 -0.06,0.01 -0.13,0.01 -0.29,0 -0.46,0.01 -0.52,0.01 -0.01,0.01 -0.01,0 -0.01,0 0,-0.02 0.02,-0.05 0.05,-0.09 0.06,0 0.14,0 0.27,-0.01 0,0 0.09,0 0.24,0 0.09,0 0.16,-0.01 0.19,-0.02zm0.75 0.25c0,0.07 0,0.12 -0.01,0.15 -0.01,0.07 -0.05,0.13 -0.12,0.17 -0.07,0.04 -0.15,0.07 -0.25,0.08 -0.07,0.01 -0.12,-0.02 -0.16,-0.07 -0.04,-0.05 -0.06,-0.11 -0.06,-0.18 0,-0.03 0.01,-0.07 0.02,-0.13 0.01,-0.06 0.03,-0.1 0.05,-0.12 0.01,-0.01 0.02,-0.01 0.02,-0.01 0.01,0 0.02,0.01 0.02,0.02 0,0 -0.01,0.02 -0.02,0.05 -0.02,0.03 -0.02,0.06 -0.02,0.09 0,0.07 0.02,0.12 0.06,0.15 0.03,0.02 0.07,0.03 0.13,0.03 0.08,0 0.15,-0.02 0.21,-0.05 0.06,-0.04 0.09,-0.1 0.09,-0.16 -0.02,-0.04 -0.04,-0.14 -0.07,-0.29 -0.03,-0.15 -0.05,-0.28 -0.09,-0.41 0,0 -0.01,-0.03 -0.04,-0.07 0.01,-0.02 0.02,-0.04 0.03,-0.07 0.01,-0.03 0.01,-0.05 0.02,-0.06 0,-0.01 0,-0.02 0.01,-0.02 0,0 0.01,0.01 0.02,0.03 0.01,0.03 0.02,0.04 0.03,0.05 0.03,0.03 0.05,0.05 0.05,0.05 0.01,0.01 0.01,0.01 0.01,0.02 0,0.02 -0.01,0.05 -0.03,0.1 0.01,0.08 0.03,0.2 0.06,0.38 0.01,0.06 0.03,0.15 0.04,0.27z"/>
   <path class="fil1" d="M3.02 2.57l0 -0.54 -2.39 0 0 -2.03 -0.63 0 0 2.57 3.02 0zm2.31 -2.03l0.03 0 0.65 1.01 -1.33 0 0.65 -1.01zm-1.3 2.03l0.31 -0.48 2.01 0 0.3 0.48 0.71 0 -1.63 -2.57 -0.77 0 -1.64 2.57 0.71 0zm6.07 0c0.26,0 0.47,-0.08 0.62,-0.23 0.17,-0.17 0.22,-0.37 0.22,-0.55 0,-0.19 -0.05,-0.39 -0.22,-0.55 -0.15,-0.15 -0.37,-0.23 -0.62,-0.23l-1.69 0c-0.13,0 -0.21,-0.08 -0.21,-0.24 0,-0.15 0.08,-0.23 0.21,-0.23l2.42 0 0 -0.54 -2.43 0c-0.25,0 -0.45,0.08 -0.61,0.23 -0.17,0.16 -0.22,0.37 -0.22,0.55 0,0.18 0.05,0.39 0.22,0.55 0.16,0.14 0.36,0.22 0.61,0.22l1.7 0c0.13,0 0.21,0.09 0.21,0.24 0,0.15 -0.08,0.24 -0.21,0.24l-2.42 0 0 0.54 2.42 0zm4.51 0l0 -0.54 -2.57 0 0 -0.48 1.96 0 0 -0.54 -1.96 0 0 -0.47 2.57 0 0 -0.54 -3.19 0 0 2.57 3.19 0z"/>
   <g style="clip-path:url(#id0)">
    <g>
     <g>
      <image x="-1.9" y="-12.95" width="4.69" height="4.52" xlink:href="logo_Images/logo_ImgID1.png"/>
     </g>
     <g>
     </g>
     <g style="clip-path:url(#id1)">
      <image x="-0.5" y="-10.69" width="2.05" height="2.05" xlink:href="logo_Images/logo_ImgID2.png"/>
     </g>
     <g style="clip-path:url(#id2)">
     </g>
     <g>
      <image x="9.09" y="-12.15" width="4.53" height="4.68" xlink:href="logo_Images/logo_ImgID3.png"/>
     </g>
     <g>
     </g>
     <g style="clip-path:url(#id3)">
      <image x="10.64" y="-9.59" width="2.05" height="2.05" xlink:href="logo_Images/logo_ImgID4.png"/>
     </g>
     <g style="clip-path:url(#id4)">
     </g>
    </g>
   </g>
   <path class="fil2" d="M3.02 2.57l0 -0.54 -2.39 0 0 -2.03 -0.63 0 0 2.57 3.02 0zm2.31 -2.03l0.03 0 0.65 1.01 -1.33 0 0.65 -1.01zm-1.3 2.03l0.31 -0.48 2.01 0 0.3 0.48 0.71 0 -1.63 -2.57 -0.77 0 -1.64 2.57 0.71 0zm6.07 0c0.26,0 0.47,-0.08 0.62,-0.23 0.17,-0.17 0.22,-0.37 0.22,-0.55 0,-0.19 -0.05,-0.39 -0.22,-0.55 -0.15,-0.15 -0.37,-0.23 -0.62,-0.23l-1.69 0c-0.13,0 -0.21,-0.08 -0.21,-0.24 0,-0.15 0.08,-0.23 0.21,-0.23l2.42 0 0 -0.54 -2.43 0c-0.25,0 -0.45,0.08 -0.61,0.23 -0.17,0.16 -0.22,0.37 -0.22,0.55 0,0.18 0.05,0.39 0.22,0.55 0.16,0.14 0.36,0.22 0.61,0.22l1.7 0c0.13,0 0.21,0.09 0.21,0.24 0,0.15 -0.08,0.24 -0.21,0.24l-2.42 0 0 0.54 2.42 0zm4.51 0l0 -0.54 -2.57 0 0 -0.48 1.96 0 0 -0.54 -1.96 0 0 -0.47 2.57 0 0 -0.54 -3.19 0 0 2.57 3.19 0z"/>
  </g>
 </g>
</svg>
